<svg version="1.1" id="Layer_1" xmlns="http://www.w3.org/2000/svg" xmlns:xlink="http://www.w3.org/1999/xlink" x="0px" y="0px"
	 width="100%" viewBox="0 0 756 719" enable-background="new 0 0 756 719" xml:space="preserve">
<path fill="#ffffff" opacity="0.5" stroke="none" 
	d="M1.000000,719.000000 C1.000000,480.305298 1.000000,241.610611 1.458877,2.563841 C3.083466,2.234620 4.249180,2.277543 5.414892,2.277472 C251.967224,2.262367 498.519562,2.245386 745.071899,2.212702 C748.063049,2.212305 751.054138,2.008735 754.379395,2.190670 C754.916687,4.776751 755.297546,7.072153 755.297729,9.367578 C755.312805,243.420898 755.300293,477.474213 755.272644,711.527527 C755.272339,714.011108 755.051025,716.494629 754.481934,718.977051 C752.198853,718.986023 750.366760,719.005188 748.534607,719.005188 C499.356415,719.004333 250.178207,719.002136 1.000000,719.000000 M710.484558,682.519592 C717.382812,682.514832 717.397461,682.514832 717.397400,675.968628 C717.395813,465.474792 717.391846,254.980927 717.373535,44.487080 C717.373413,43.051239 717.167297,41.615414 717.041809,39.975128 C715.375916,39.898144 714.076355,39.785503 712.776794,39.785595 C656.278442,39.789574 599.780151,39.821056 543.281799,39.812984 C376.453217,39.789158 209.624588,39.779362 42.796196,39.582157 C37.561188,39.575974 36.512508,40.978024 36.515289,45.945698 C36.630692,252.106094 36.602631,458.266602 36.588947,664.427063 C36.588627,669.260132 36.308804,674.111877 36.685020,678.913757 C36.784760,680.186768 38.745804,682.192627 40.020535,682.332947 C44.138775,682.786255 48.335388,682.541382 52.501797,682.541199 C271.495605,682.532410 490.489410,682.521240 710.484558,682.519592 z"/>
<path fill="#A6A7A7" opacity="1.000000" stroke="none" 
	d="M754.932861,718.978210 C755.051025,716.494629 755.272339,714.011108 755.272644,711.527527 C755.300293,477.474213 755.312805,243.420898 755.297729,9.367578 C755.297546,7.072153 754.916687,4.776751 754.382629,1.964943 C754.051697,1.448549 754.000000,1.000000 754.000000,1.000000 C755.654358,1.048076 757.871765,0.378559 757.024292,3.506584 C756.856018,4.127662 757.000000,4.833333 757.000000,5.500000 C757.000000,242.166672 757.001831,478.833344 756.958679,715.500000 C756.958435,717.000061 756.333313,718.500000 755.524780,719.741821 C755.010559,719.315186 754.971680,719.146729 754.932861,718.978210 z"/>
<path fill="#262727" opacity="1.000000" stroke="none" 
	d="M754.481934,718.977051 C754.971680,719.146729 755.010559,719.315186 755.024780,719.741821 C503.666656,720.000000 252.333328,720.000000 1.000000,719.500000 C250.178207,719.002136 499.356415,719.004333 748.534607,719.005188 C750.366760,719.005188 752.198853,718.986023 754.481934,718.977051 z"/>
<path fill="#868587" opacity="1.000000" stroke="none" 
	d="M753.531372,1.000000 C754.000000,1.000000 754.051697,1.448549 754.048462,1.674276 C751.054138,2.008735 748.063049,2.212305 745.071899,2.212702 C498.519562,2.245386 251.967224,2.262367 5.414892,2.277472 C4.249180,2.277543 3.083466,2.234620 1.458877,2.105888 C1.166376,1.666667 1.315335,1.056180 1.501923,1.044454 C2.829240,0.961039 4.164248,1.000000 5.496808,1.000000 C254.685440,1.000000 503.874054,1.000000 753.531372,1.000000 z"/>
<path fill="#000000" opacity="1.000000" stroke="none" 
	d="M709.983887,682.514893 C490.489410,682.521240 271.495605,682.532410 52.501797,682.541199 C48.335388,682.541382 44.138775,682.786255 40.020535,682.332947 C38.745804,682.192627 36.784760,680.186768 36.685020,678.913757 C36.308804,674.111877 36.588627,669.260132 36.588947,664.427063 C36.602631,458.266602 36.630692,252.106094 36.515289,45.945698 C36.512508,40.978024 37.561188,39.575974 42.796196,39.582157 C209.624588,39.779362 376.453217,39.789158 543.281799,39.812984 C599.780151,39.821056 656.278442,39.789574 712.776794,39.785595 C714.076355,39.785503 715.375916,39.898144 717.041809,39.975128 C717.167297,41.615414 717.373413,43.051239 717.373535,44.487080 C717.391846,254.980927 717.395813,465.474792 717.397400,675.968628 C717.397461,682.514832 717.382812,682.514832 709.983887,682.514893 M239.668610,244.016754 C258.087372,236.593246 277.059540,234.515060 296.460724,238.938934 C315.365082,243.249496 332.136230,251.550446 344.542786,267.071228 C359.240570,285.458252 367.572266,306.651764 371.022034,329.723511 C375.579071,360.200592 380.711121,390.491394 389.878693,420.032654 C402.146088,459.562714 420.921997,495.269623 450.133575,524.910889 C459.901154,534.822144 470.681000,543.735840 481.364807,553.438538 C472.556335,575.556274 465.198578,598.751526 461.703094,623.471130 C527.332031,623.471130 592.401489,623.471130 657.474792,623.471130 C657.474792,483.451508 657.474792,343.750275 657.474792,204.022583 C656.691223,204.022583 656.311707,203.906326 656.075623,204.041153 C654.341736,205.031387 652.627502,206.057114 650.923706,207.098816 C633.773682,217.584396 615.185608,224.148117 595.280273,226.561981 C554.102417,231.555420 515.062378,223.809326 479.337524,203.185028 C460.278503,192.182083 442.542694,178.635559 425.192444,164.987671 C403.279755,147.750900 379.737000,133.745926 353.827484,123.622246 C309.664490,106.366371 265.006805,102.951469 219.688461,118.965439 C162.374619,139.218216 124.083107,178.646637 104.500275,235.729980 C90.995651,275.095520 90.394173,315.302216 103.475761,355.035187 C127.043213,426.617065 176.538651,469.077393 250.473999,482.307434 C282.792542,488.090546 314.852814,484.634644 346.087982,474.136627 C349.982635,472.827637 351.123352,470.902740 351.102631,466.984528 C350.979187,443.652557 351.094727,420.319366 351.103790,396.986572 C351.104340,395.619995 350.876465,394.253387 350.698639,392.254486 C349.350281,393.248383 348.646942,393.659393 348.072388,394.205811 C321.923950,419.072845 290.925354,427.049896 255.930511,420.166931 C214.633133,412.044403 184.659683,376.835571 182.767044,334.754974 C181.076263,297.162354 203.676422,260.819580 239.668610,244.016754 z"/>
<path fill="#020202" opacity="1.000000" stroke="none" 
	d="M239.325577,244.186447 C203.676422,260.819580 181.076263,297.162354 182.767044,334.754974 C184.659683,376.835571 214.633133,412.044403 255.930511,420.166931 C290.925354,427.049896 321.923950,419.072845 348.072388,394.205811 C348.646942,393.659393 349.350281,393.248383 350.698639,392.254486 C350.876465,394.253387 351.104340,395.619995 351.103790,396.986572 C351.094727,420.319366 350.979187,443.652557 351.102631,466.984528 C351.123352,470.902740 349.982635,472.827637 346.087982,474.136627 C314.852814,484.634644 282.792542,488.090546 250.473999,482.307434 C176.538651,469.077393 127.043213,426.617065 103.475761,355.035187 C90.394173,315.302216 90.995651,275.095520 104.500275,235.729980 C124.083107,178.646637 162.374619,139.218216 219.688461,118.965439 C265.006805,102.951469 309.664490,106.366371 353.827484,123.622246 C379.737000,133.745926 403.279755,147.750900 425.192444,164.987671 C442.542694,178.635559 460.278503,192.182083 479.337524,203.185028 C515.062378,223.809326 554.102417,231.555420 595.280273,226.561981 C615.185608,224.148117 633.773682,217.584396 650.923706,207.098816 C652.627502,206.057114 654.341736,205.031387 656.075623,204.041153 C656.311707,203.906326 656.691223,204.022583 657.474792,204.022583 C657.474792,343.750275 657.474792,483.451508 657.474792,623.471130 C592.401489,623.471130 527.332031,623.471130 461.703094,623.471130 C465.198578,598.751526 472.556335,575.556274 481.364807,553.438538 C470.681000,543.735840 459.901154,534.822144 450.133575,524.910889 C420.921997,495.269623 402.146088,459.562714 389.878693,420.032654 C380.711121,390.491394 375.579071,360.200592 371.022034,329.723511 C367.572266,306.651764 359.240570,285.458252 344.542786,267.071228 C332.136230,251.550446 315.365082,243.249496 296.460724,238.938934 C277.059540,234.515060 258.087372,236.593246 239.325577,244.186447 M405.066071,356.463867 C410.432312,383.842468 418.457458,410.395691 430.494324,435.600952 C445.061768,466.105164 463.614624,493.674988 490.639832,514.752502 C492.789459,516.429016 495.057343,517.953857 496.417114,518.934143 C513.274902,494.606476 529.752014,470.828064 546.346313,446.880646 C544.305969,446.365356 542.040405,445.919800 539.855347,445.221893 C516.372620,437.721619 498.028503,423.066315 483.016296,403.948822 C457.174347,371.040009 444.689209,332.920502 439.677368,291.924713 C438.283508,280.522980 437.043335,269.093719 435.263367,257.750763 C433.873779,248.895523 427.581482,243.368057 419.133240,242.589844 C411.363129,241.874100 404.838959,245.662964 401.942169,253.419128 C400.451782,257.409546 399.397797,266.087616 C397.282166,296.164215 399.298950,326.010345 405.066071,356.463867 M526.730957,299.152283 C524.841736,300.771179 522.798889,302.243286 521.088745,304.033264 C511.238831,314.342743 509.870361,330.107635 517.726929,341.649139 C526.089478,353.933990 540.631409,358.646790 554.090332,352.992706 C565.409607,348.237457 572.231384,339.693481 573.135559,327.223969 C574.031616,314.867828 568.991577,305.131012 558.450073,298.728607 C548.244873,292.530487 537.709229,292.676788 526.730957,299.152283 z"/>
<path fill="#FBFBFB" opacity="1.000000" stroke="none" 
	d="M404.985992,356.043945 C399.298950,326.010345 397.282166,296.164215 399.397797,266.087616 C399.698334,261.814636 400.451782,257.409546 401.942169,253.419128 C404.838959,245.662964 411.363129,241.874100 419.133240,242.589844 C427.581482,243.368057 433.873779,248.895523 435.263367,257.750763 C437.043335,269.093719 438.283508,280.522980 439.677368,291.924713 C444.689209,332.920502 457.174347,371.040009 483.016296,403.948822 C498.028503,423.066315 516.372620,437.721619 539.855347,445.221893 C542.040405,445.919800 544.305969,446.365356 546.346313,446.880646 C529.752014,470.828064 513.274902,494.606476 496.417114,518.934143 C495.057343,517.953857 492.789459,516.429016 490.639832,514.752502 C463.614624,493.674988 445.061768,466.105164 430.494324,435.600952 C418.457458,410.395691 410.432312,383.842468 404.985992,356.043945 z"/>
<path fill="#F9F9F9" opacity="1.000000" stroke="none" 
	d="M527.041626,298.965088 C537.709229,292.676788 548.244873,292.530487 558.450073,298.728607 C568.991577,305.131012 574.031616,314.867828 573.135559,327.223969 C572.231384,339.693481 565.409607,348.237457 554.090332,352.992706 C540.631409,358.646790 526.089478,353.933990 517.726929,341.649139 C509.870361,330.107635 511.238831,314.342743 521.088745,304.033264 C522.798889,302.243286 524.841736,300.771179 527.041626,298.965088 z"/>
</svg>