<svg version="1.1" id="Layer_1" xmlns="http://www.w3.org/2000/svg" xmlns:xlink="http://www.w3.org/1999/xlink" x="0px" y="0px"
	 viewBox="0 0 756 719" style="enable-background:new 0 0 756 719;" xml:space="preserve">
<style type="text/css">
	.st0{fill:#030303;}
	.st1{fill:#020202;}
</style>
<path class="st0" d="M1,719c0-238.7,0-477.4,0.5-716.4c1.6-0.3,2.8-0.3,4-0.3c246.6,0,493.1,0,739.7,0c3,0,6-0.2,9.3,0
	c0.5,2.6,0.9,4.9,0.9,7.2c0,234,0,468,0,702.1c0,2.5-0.2,5-0.8,7.4c-2.3,0-4.1,0-6,0c-249.2,0-498.4,0-747.5,0
	M710.5,682.5c6.9,0,6.9,0,6.9-6.6c0-210.5,0-421,0-631.5c0-1.4-0.2-2.9-0.3-4.5c-1.7-0.1-3-0.2-4.3-0.2c-56.5,0-113,0-169.5,0
	c-166.8,0-333.7,0-500.5-0.2c-5.2,0-6.3,1.4-6.3,6.4c0.1,206.2,0.1,412.3,0.1,618.5c0,4.8-0.3,9.7,0.1,14.5
	c0.1,1.3,2.1,3.3,3.3,3.4c4.1,0.5,8.3,0.2,12.5,0.2C271.5,682.5,490.5,682.5,710.5,682.5z"/>
<path class="st1" d="M239.3,244.2c-35.6,16.6-58.2,53-56.6,90.6c1.9,42.1,31.9,77.3,73.2,85.4c35,6.9,66,-1,92.1-25.9
	c0.6-0.5,1.3-1,2.6-1.9c0.2,2,0.4,3.4,0.4,4.7c0,23.3-0.1,46.7,0,70c0,3.9-1.1,5.8-5,7.1c-31.3,10.5-63.3,14-95.6,8.2
	c-73.9-13.2-123.4-55.7-147-127.2c-13.1-39.7-12.5-80,1-119.4c19.6-57.1,57.9-96.5,115.2-116.8c45.3-16,90-12.6,134.1,4.7
	c25.9,10.1,49.5,24.1,71.4,41.4c17.4,13.6,35.1,27.2,54.2,38.2c35.7,20.6,74.7,28.4,115.9,23.4c19.9-2.4,38.5-9,55.6-19.5
	c1.7-1,3.4-2,5.2-3c0.2-0.1,0.6,0,1.4,0c0,139.7,0,279.4,0,419.4c-65.1,0-130.1,0-195.8,0c3.5-24.7,10.9-47.9,19.7-70
	c-10.7-9.7-21.5-18.6-31.2-28.5c-29.2-29.7-48-65.4-60.3-104.9c-9.2-29.6-14.3-59.9-18.9-90.4c-3.4-23.1-11.8-44.3-26.5-62.7
	c-12.4-15.5-29.2-23.8-48.1-28.1c-19.4-4.4-38.4-2.3-57.2,5.3z M405.1,356.5c5.4,27.4,13.4,53.9,25.4,79.1c14.6,30.5,33.1,58.1,60.1,79.2
	c2.1,1.7,4.4,3.2,5.7,4.2c16.9-24.3,33.3-48.1,49.9-72c-2-0.5-4.3-1-6.5-1.7c-23.5-7.5-41.8-22.2-56.9-41.3c-25.8-32.9-38.3-71-43.4-112
	c-1.4-11.4-2.6-22.9-4.4-34.2c-1.4-8.9-7.7-14.4-16.1-15.2c-7.8-0.7-14.3,3.1-17.2,10.8c-1.5,4-2.5,12.7-2.5,12.7
	c-2.1,30.1-0.1,59.9,5.7,90.4 M526.7,299.2c-1.9,1.6-3.9,3.1-5.6,4.9c-9.8,10.3-11.2,26.1-3.4,37.6c8.4,12.3,22.9,17,36.4,11.3
	c11.3-4.8,18.1-13.3,19-25.8c0.9-12.4-4.1-22.1-14.7-28.5C548.2,292.5,537.7,292.7,526.7,299.2z"/>
</svg>